# Blender v3.6.1 OBJ File: 'bee.blend'
# www.blender.org
mtllib beeAla.mtl
o Cube.005
v -0.052179 -1.704049 2.219418
v -0.052179 0.145404 0.706735
v -0.052179 -2.280594 1.402353
v -0.052179 -0.235500 0.166928
v 0.079496 -1.704049 2.219418
v 0.079496 0.145404 0.706735
v 0.079496 -2.280595 1.402353
v 0.079496 -0.235500 0.166928
v -0.074125 -0.887906 1.778288
v -0.074125 -1.591419 0.781287
v 0.101442 -1.591419 0.781287
v 0.101442 -0.887906 1.778288
v -0.066606 -2.034387 1.840568
v -0.070365 -0.257091 1.182621
v -0.066606 0.055126 0.366146
v -0.070365 -2.117802 1.127093
v 0.013658 -2.385830 1.342511
v 0.013658 -0.167022 0.051323
v 0.097683 -2.117801 1.127093
v 0.093923 -2.034387 1.840568
v 0.093923 0.055126 0.366146
v 0.097683 -1.390146 2.158308
v 0.013658 -1.682943 2.338624
v 0.013659 0.277274 0.680968
v -0.070365 -1.390146 2.158308
v -0.070365 -0.818768 0.386626
v 0.097682 -0.818768 0.386626
v 0.097682 -0.257091 1.182620
v 0.013659 -0.755997 1.965225
v 0.134360 -1.239663 1.279787
v 0.013659 -1.723328 0.594349
v -0.107043 -1.239662 1.279787
v -0.101963 -0.528053 0.777654
v 0.013658 -0.912317 0.233086
v 0.129280 -0.528053 0.777654
v 0.013659 -0.143789 1.322223
v 0.013658 -2.122664 1.902859
v 0.013658 0.265351 0.217805
v 0.013659 -1.257469 2.355138
v 0.129280 -1.758121 1.645627
v 0.013659 -2.258773 0.936115
v -0.101963 -1.758121 1.645627
vt 0.428841 0.310119
vt 0.397996 0.557753
vt 0.258492 0.563074
vt 0.253632 0.314433
vt 0.354404 0.727989
vt 0.262430 0.764615
vt 0.169096 0.731610
vt 0.118886 0.563208
vt 0.078389 0.316969
vt 0.061811 0.570041
vt 0.007343 0.317923
vt 0.150327 0.770437
vt 0.955294 0.562351
vt 0.874675 0.766053
vt 0.854404 0.727989
vt 0.897996 0.557753
vt 0.999870 0.308297
vt 0.928841 0.310120
vt 0.758492 0.563074
vt 0.753632 0.314433
vt 0.762430 0.764615
vt 0.669096 0.731610
vt 0.618886 0.563208
vt 0.578389 0.316968
vt 0.561811 0.570041
vt 0.507343 0.317923
vt 0.650327 0.770437
vt 0.455294 0.562351
vt 0.374675 0.766053
vt 0.499870 0.308297
vt 0.110180 0.056203
vt 0.076089 0.036113
vt 0.247490 0.000130
vt 0.248249 0.038964
vt 0.920166 0.029389
vt 0.886886 0.050795
vt 0.748249 0.038964
vt 0.747490 0.000130
vt 0.610180 0.056203
vt 0.576089 0.036114
vt 0.420165 0.029389
vt 0.386886 0.050795
vt 0.763936 0.841646
vt 0.263936 0.841646
vt 0.572190 0.137307
vt 0.500130 0.133458
vt 0.499870 0.123691
vt 0.428015 0.130353
vt 0.928015 0.130353
vt 0.750130 0.135246
vt 0.072190 0.137307
vt 0.000130 0.133458
vt 0.999870 0.123691
vt 0.250130 0.135246
vn -0.9982 0.0415 0.0427
vn -0.9968 0.0763 0.0246
vn -0.9968 0.0024 -0.0801
vn -0.9982 -0.0263 -0.0534
vn -0.9203 -0.1668 -0.3539
vn -0.8713 -0.1310 -0.4729
vn 0.8713 -0.1310 -0.4729
vn 0.9203 -0.1668 -0.3539
vn 0.9982 -0.0263 -0.0534
vn 0.9968 0.0024 -0.0801
vn 0.9968 0.0763 0.0246
vn 0.9982 0.0415 0.0427
vn 0.9203 0.2776 0.2758
vn 0.8713 0.4017 0.2819
vn -0.8713 0.4017 0.2819
vn -0.9203 0.2776 0.2758
vn -0.7673 -0.5757 0.2826
vn 0.7673 -0.5757 0.2826
vn 0.7673 -0.4592 0.4477
vn -0.7673 -0.4592 0.4477
vn 0.9249 0.1568 -0.3464
vn -0.9249 0.1568 -0.3464
vn -0.9249 0.3789 -0.0316
vn 0.9249 0.3789 -0.0316
vn 0.9042 0.0035 0.4271
vn 0.9382 0.2084 0.2763
vn -0.9382 0.2084 0.2763
vn -0.9042 0.0035 0.4271
vn 0.9946 -0.1028 0.0173
vn 0.9986 -0.0349 -0.0389
vn 0.9986 0.0249 0.0460
vn 0.9946 -0.0507 0.0911
vn -0.9042 -0.4012 -0.1465
vn -0.9382 -0.1905 -0.2890
vn 0.9382 -0.1905 -0.2890
vn 0.9042 -0.4012 -0.1465
vn -0.9946 -0.0507 0.0911
vn -0.9986 0.0249 0.0460
vn -0.9986 -0.0349 -0.0389
vn -0.9946 -0.1028 0.0173
usemtl Ala
s off
f 9/1/1 14/2/1 33/3/1 32/4/1
f 14/2/2 2/5/2 15/6/2 33/3/2
f 33/3/3 15/6/3 4/7/3 26/8/3
f 32/4/4 33/3/4 26/8/4 10/9/4
f 10/9/5 26/8/5 34/10/5 31/11/5
f 26/8/6 4/7/6 18/12/6 34/10/6
f 34/13/7 18/14/7 8/15/7 27/16/7
f 31/17/8 34/13/8 27/16/8 11/18/8
f 11/18/9 27/16/9 35/19/9 30/20/9
f 27/16/10 8/15/10 21/21/10 35/19/10
f 35/19/11 21/21/11 6/22/11 28/23/11
f 30/20/12 35/19/12 28/23/12 12/24/12
f 12/24/13 28/23/13 36/25/13 29/26/13
f 28/23/14 6/22/14 24/27/14 36/25/14
f 36/28/15 24/29/15 2/5/15 14/2/15
f 29/30/16 36/28/16 14/2/16 9/1/16
f 3/31/17 17/32/17 37/33/17 13/34/17
f 17/35/18 7/36/18 20/37/18 37/38/18
f 37/38/19 20/37/19 5/39/19 23/40/19
f 13/34/20 37/33/20 23/41/20 1/42/20
f 8/15/21 18/14/21 38/43/21 21/21/21
f 18/12/22 4/7/22 15/6/22 38/44/22
f 38/44/23 15/6/23 2/5/23 24/29/23
f 21/21/24 38/43/24 24/27/24 6/22/24
f 5/39/25 22/45/25 39/46/25 23/40/25
f 22/45/26 12/24/26 29/26/26 39/46/26
f 39/47/27 29/30/27 9/1/27 25/48/27
f 23/41/28 39/47/28 25/48/28 1/42/28
f 7/36/29 19/49/29 40/50/29 20/37/29
f 19/49/30 11/18/30 30/20/30 40/50/30
f 40/50/31 30/20/31 12/24/31 22/45/31
f 20/37/32 40/50/32 22/45/32 5/39/32
f 3/31/33 16/51/33 41/52/33 17/32/33
f 16/51/34 10/9/34 31/11/34 41/52/34
f 41/53/35 31/17/35 11/18/35 19/49/35
f 17/35/36 41/53/36 19/49/36 7/36/36
f 1/42/37 25/48/37 42/54/37 13/34/37
f 25/48/38 9/1/38 32/4/38 42/54/38
f 42/54/39 32/4/39 10/9/39 16/51/39
f 13/34/40 42/54/40 16/51/40 3/31/40
