# Blender v2.82 (sub 7) OBJ File: 'beetleTexture.blend'
# www.blender.org
mtllib gorrito.mtl
o Cone
v 2.047654 0.909107 -0.302506
v 2.105926 0.918449 -0.296693
v 2.161959 0.927433 -0.279479
v 2.213599 0.935712 -0.251524
v 2.258862 0.942968 -0.213904
v 2.296008 0.948924 -0.168063
v 2.323610 0.953349 -0.115764
v 2.340607 0.956074 -0.059016
v 2.346346 0.956994 0.000000
v 2.340607 0.956074 0.059016
v 2.323610 0.953349 0.115764
v 2.296008 0.948924 0.168064
v 2.258862 0.942968 0.213904
v 2.213599 0.935712 0.251525
v 2.161959 0.927433 0.279480
v 2.105926 0.918449 0.296694
v 2.047654 0.909107 0.302506
v 1.989382 0.899765 0.296694
v 1.933350 0.890781 0.279479
v 1.881710 0.882502 0.251525
v 1.836447 0.875245 0.213904
v 1.799301 0.869290 0.168063
v 1.771699 0.864865 0.115764
v 1.788609 2.524872 0.000000
v 1.754702 0.862140 0.059016
v 1.748963 0.861220 -0.000000
v 1.754702 0.862140 -0.059016
v 1.771699 0.864865 -0.115764
v 1.799301 0.869290 -0.168064
v 1.836448 0.875245 -0.213904
v 1.881710 0.882502 -0.251525
v 1.933350 0.890781 -0.279479
v 1.989383 0.899765 -0.296693
v 2.055519 0.860055 -0.302506
v 2.113791 0.869397 -0.296693
v 2.169823 0.878380 -0.279479
v 2.221463 0.886660 -0.251524
v 2.266726 0.893916 -0.213904
v 2.303872 0.899872 -0.168063
v 2.331474 0.904297 -0.115764
v 2.348471 0.907022 -0.059016
v 2.354210 0.907942 0.000000
v 2.348471 0.907022 0.059016
v 2.331474 0.904297 0.115764
v 2.303872 0.899872 0.168064
v 2.266726 0.893916 0.213904
v 2.221463 0.886660 0.251525
v 2.169823 0.878380 0.279480
v 2.113791 0.869397 0.296694
v 2.055519 0.860055 0.302506
v 1.997247 0.850712 0.296694
v 1.941214 0.841729 0.279479
v 1.889574 0.833450 0.251525
v 1.844311 0.826193 0.213904
v 1.807165 0.820238 0.168063
v 1.779563 0.815813 0.115764
v 1.762566 0.813087 0.059016
v 1.756827 0.812167 -0.000000
v 1.762566 0.813087 -0.059016
v 1.779564 0.815813 -0.115764
v 1.807166 0.820238 -0.168064
v 1.844312 0.826193 -0.213904
v 1.889575 0.833450 -0.251525
v 1.941215 0.841729 -0.279479
v 1.997247 0.850712 -0.296693
v 2.047542 0.909810 -0.565169
v 2.156410 0.927265 -0.554310
v 2.261096 0.944048 -0.522148
v 2.357574 0.959516 -0.469921
v 2.442138 0.973074 -0.399635
v 2.511538 0.984200 -0.313991
v 2.563106 0.992468 -0.216281
v 2.594862 0.997559 -0.110259
v 2.605585 0.999278 0.000000
v 2.594862 0.997559 0.110259
v 2.563106 0.992468 0.216281
v 2.511538 0.984200 0.313992
v 2.442138 0.973074 0.399636
v 2.357574 0.959516 0.469922
v 2.261095 0.944048 0.522149
v 2.156410 0.927265 0.554310
v 2.047541 0.909810 0.565170
v 1.938672 0.892356 0.554310
v 1.833987 0.875573 0.522149
v 1.737509 0.860105 0.469921
v 1.652945 0.846547 0.399635
v 1.583545 0.835421 0.313991
v 1.531977 0.827153 0.216281
v 1.500221 0.822062 0.110259
v 1.489498 0.820343 -0.000000
v 1.500221 0.822062 -0.110259
v 1.531977 0.827153 -0.216281
v 1.583546 0.835421 -0.313992
v 1.652946 0.846547 -0.399636
v 1.737510 0.860105 -0.469922
v 1.833988 0.875573 -0.522149
v 1.938674 0.892356 -0.554310
v 2.055631 0.859351 -0.565169
v 2.164500 0.876805 -0.554310
v 2.269185 0.893589 -0.522148
v 2.365664 0.909056 -0.469921
v 2.450228 0.922614 -0.399635
v 2.519628 0.933740 -0.313991
v 2.571196 0.942008 -0.216281
v 2.602952 0.947099 -0.110259
v 2.613675 0.948818 0.000000
v 2.602952 0.947099 0.110259
v 2.571196 0.942008 0.216281
v 2.519628 0.933740 0.313992
v 2.450228 0.922614 0.399636
v 2.365664 0.909056 0.469922
v 2.269185 0.893589 0.522149
v 2.164500 0.876805 0.554310
v 2.055631 0.859351 0.565170
v 1.946762 0.841897 0.554310
v 1.842077 0.825113 0.522149
v 1.745599 0.809645 0.469921
v 1.661035 0.796088 0.399635
v 1.591635 0.784961 0.313991
v 1.540066 0.776694 0.216281
v 1.508311 0.771602 0.110259
v 1.497588 0.769883 -0.000000
v 1.508311 0.771602 -0.110259
v 1.540067 0.776694 -0.216281
v 1.591636 0.784961 -0.313992
v 1.661036 0.796088 -0.399636
v 1.745600 0.809645 -0.469922
v 1.842078 0.825113 -0.522149
v 1.946763 0.841897 -0.554310
vt 0.250000 0.490000
vt 0.250000 0.250000
vt 0.296822 0.485388
vt 0.341844 0.471731
vt 0.383337 0.449553
vt 0.419706 0.419706
vt 0.449553 0.383337
vt 0.471731 0.341844
vt 0.485388 0.296822
vt 0.490000 0.250000
vt 0.485388 0.203178
vt 0.471731 0.158156
vt 0.449553 0.116663
vt 0.419706 0.080294
vt 0.383337 0.050447
vt 0.341844 0.028269
vt 0.296822 0.014612
vt 0.250000 0.010000
vt 0.203178 0.014612
vt 0.158156 0.028269
vt 0.116663 0.050447
vt 0.080294 0.080294
vt 0.050447 0.116663
vt 0.028269 0.158156
vt 0.014611 0.203179
vt 0.010000 0.250000
vt 0.014612 0.296822
vt 0.028269 0.341844
vt 0.050447 0.383337
vt 0.080295 0.419706
vt 0.116663 0.449553
vt 0.158156 0.471731
vt 0.203179 0.485389
vt 0.841844 0.028269
vt 0.883337 0.050447
vt 0.883337 0.050447
vt 0.841844 0.028269
vt 0.750000 0.490000
vt 0.796822 0.485388
vt 0.841844 0.471731
vt 0.883337 0.449553
vt 0.919706 0.419706
vt 0.949553 0.383337
vt 0.971731 0.341844
vt 0.985388 0.296822
vt 0.990000 0.250000
vt 0.985388 0.203178
vt 0.971731 0.158156
vt 0.949553 0.116663
vt 0.919706 0.080294
vt 0.796822 0.014612
vt 0.750000 0.010000
vt 0.703178 0.014612
vt 0.658156 0.028269
vt 0.616663 0.050447
vt 0.580294 0.080294
vt 0.550447 0.116663
vt 0.528269 0.158156
vt 0.514611 0.203179
vt 0.510000 0.250000
vt 0.514612 0.296822
vt 0.528269 0.341844
vt 0.550447 0.383337
vt 0.580295 0.419706
vt 0.616663 0.449553
vt 0.658156 0.471731
vt 0.703179 0.485389
vt 0.014612 0.296822
vt 0.010000 0.250000
vt 0.919706 0.080294
vt 0.419706 0.080294
vt 0.449553 0.116663
vt 0.949553 0.116663
vt 0.014611 0.203179
vt 0.971731 0.158156
vt 0.471731 0.158156
vt 0.985388 0.203178
vt 0.028269 0.158156
vt 0.990000 0.250000
vt 0.485388 0.203178
vt 0.985388 0.296822
vt 0.971731 0.341844
vt 0.490000 0.250000
vt 0.050447 0.116663
vt 0.949553 0.383337
vt 0.703179 0.485389
vt 0.750000 0.490000
vt 0.919706 0.419706
vt 0.658156 0.471731
vt 0.485388 0.296822
vt 0.080294 0.080294
vt 0.883337 0.449553
vt 0.616663 0.449553
vt 0.841844 0.471731
vt 0.580295 0.419706
vt 0.471731 0.341844
vt 0.116663 0.050447
vt 0.796822 0.485388
vt 0.550447 0.383337
vt 0.528269 0.341844
vt 0.419706 0.419706
vt 0.449553 0.383337
vt 0.449553 0.383337
vt 0.419706 0.419706
vt 0.203179 0.485389
vt 0.250000 0.490000
vt 0.250000 0.490000
vt 0.203179 0.485389
vt 0.419706 0.080294
vt 0.449553 0.116663
vt 0.014612 0.296822
vt 0.010000 0.250000
vt 0.158156 0.028269
vt 0.116663 0.050447
vt 0.158156 0.028269
vt 0.471731 0.341844
vt 0.383337 0.050447
vt 0.383337 0.050447
vt 0.028269 0.341844
vt 0.028269 0.341844
vt 0.080294 0.080294
vt 0.485388 0.296822
vt 0.296822 0.485388
vt 0.296822 0.485388
vt 0.341844 0.028269
vt 0.341844 0.028269
vt 0.050447 0.383337
vt 0.050447 0.383337
vt 0.050447 0.116663
vt 0.490000 0.250000
vt 0.296822 0.014612
vt 0.296822 0.014612
vt 0.080295 0.419706
vt 0.080295 0.419706
vt 0.028269 0.158156
vt 0.341844 0.471731
vt 0.341844 0.471731
vt 0.485388 0.203178
vt 0.250000 0.010000
vt 0.250000 0.010000
vt 0.116663 0.449553
vt 0.116663 0.449553
vt 0.383337 0.449553
vt 0.383337 0.449553
vt 0.471731 0.158156
vt 0.014611 0.203179
vt 0.203178 0.014612
vt 0.203178 0.014612
vt 0.158156 0.471731
vt 0.158156 0.471731
vt 0.796822 0.014612
vt 0.750000 0.010000
vt 0.703178 0.014612
vt 0.658156 0.028269
vt 0.616663 0.050447
vt 0.580294 0.080294
vt 0.550447 0.116663
vt 0.528269 0.158156
vt 0.514611 0.203179
vt 0.510000 0.250000
vt 0.514612 0.296822
vn 0.0665 0.1939 -0.9788
vn 0.2533 0.2238 -0.9411
vn 0.4291 0.2520 -0.8674
vn 0.5874 0.2774 -0.7603
vn 0.7220 0.2990 -0.6239
vn 0.8278 0.3160 -0.4636
vn 0.9006 0.3276 -0.2855
vn 0.9378 0.3336 -0.0964
vn 0.9378 0.3336 0.0964
vn 0.9006 0.3276 0.2855
vn 0.8278 0.3160 0.4636
vn 0.7220 0.2990 0.6239
vn 0.5874 0.2774 0.7603
vn 0.4291 0.2520 0.8674
vn 0.2533 0.2238 0.9411
vn 0.0665 0.1939 0.9788
vn -0.1238 0.1634 0.9788
vn -0.3105 0.1335 0.9411
vn -0.4864 0.1053 0.8674
vn -0.6447 0.0799 0.7603
vn -0.7793 0.0583 0.6239
vn -0.8851 0.0413 0.4636
vn -0.9579 0.0297 0.2855
vn -0.9951 0.0237 0.0964
vn -0.9951 0.0237 -0.0964
vn -0.9579 0.0297 -0.2855
vn -0.8851 0.0413 -0.4636
vn -0.7793 0.0583 -0.6239
vn -0.6447 0.0799 -0.7603
vn -0.4864 0.1053 -0.8674
vn -0.3105 0.1335 -0.9411
vn -0.1238 0.1634 -0.9788
vn 0.1570 -0.9876 -0.0024
vn 0.1583 -0.9874 0.0000
vn -0.1556 0.9878 0.0003
vn 0.1566 -0.9877 -0.0021
vn -0.1604 0.9871 -0.0017
vn 0.1562 -0.9877 -0.0017
vn -0.1556 0.9878 -0.0003
vn 0.1559 -0.9878 -0.0013
vn -0.1607 0.9870 -0.0013
vn 0.1557 -0.9878 -0.0008
vn -0.1557 0.9878 -0.0008
vn 0.1556 -0.9878 -0.0003
vn -0.1609 0.9870 -0.0008
vn 0.1556 -0.9878 0.0003
vn 0.1557 -0.9878 0.0008
vn -0.1610 0.9870 -0.0003
vn -0.1559 0.9878 -0.0013
vn 0.1559 -0.9878 0.0013
vn 0.1586 -0.9873 0.0027
vn 0.1562 -0.9877 0.0017
vn 0.1591 -0.9873 0.0026
vn -0.1610 0.9870 0.0003
vn -0.1562 0.9877 -0.0017
vn 0.1566 -0.9877 0.0021
vn 0.1596 -0.9872 0.0024
vn 0.1570 -0.9876 0.0024
vn 0.1600 -0.9871 0.0021
vn -0.1609 0.9870 0.0008
vn -0.1566 0.9877 -0.0021
vn 0.1575 -0.9875 0.0026
vn 0.1604 -0.9871 0.0017
vn 0.1580 -0.9874 0.0027
vn 0.1607 -0.9870 0.0013
vn 0.7633 0.1224 -0.6344
vn -0.0968 -0.0155 -0.9952
vn 0.7633 0.1224 0.6344
vn -0.9826 -0.1575 -0.0980
vn -0.4655 -0.0746 0.8819
vn 0.8708 0.1396 -0.4714
vn 0.6264 0.1004 0.7730
vn -0.9449 -0.1515 -0.2903
vn -0.6264 -0.1004 0.7730
vn 0.9449 0.1515 -0.2903
vn 0.0968 0.0155 -0.9952
vn 0.4655 0.0746 0.8819
vn -0.8708 -0.1396 -0.4714
vn -0.7633 -0.1224 0.6344
vn 0.9826 0.1575 -0.0980
vn 0.2866 0.0460 0.9569
vn -0.7633 -0.1224 -0.6344
vn -0.8708 -0.1396 0.4714
vn 0.2866 0.0460 -0.9569
vn 0.9826 0.1575 0.0980
vn 0.0968 0.0155 0.9952
vn -0.6264 -0.1004 -0.7730
vn 0.4655 0.0746 -0.8819
vn 0.9449 0.1515 0.2903
vn -0.9449 -0.1515 0.2903
vn -0.0968 -0.0155 0.9952
vn -0.4655 -0.0746 -0.8819
vn 0.6264 0.1004 -0.7730
vn 0.8708 0.1396 0.4714
vn -0.9826 -0.1575 0.0980
vn -0.2866 -0.0460 0.9569
vn -0.2866 -0.0460 -0.9569
vn -0.1600 0.9871 -0.0021
vn 0.1575 -0.9875 -0.0026
vn -0.1557 0.9878 0.0008
vn -0.1586 0.9873 0.0027
vn 0.1580 -0.9874 -0.0027
vn -0.1596 0.9872 -0.0024
vn 0.1586 -0.9873 -0.0027
vn -0.1559 0.9878 0.0013
vn 0.1591 -0.9873 -0.0026
vn -0.1591 0.9873 -0.0026
vn -0.1591 0.9873 0.0026
vn 0.1596 -0.9872 -0.0024
vn -0.1562 0.9877 0.0017
vn 0.1600 -0.9871 -0.0021
vn -0.1586 0.9873 -0.0027
vn -0.1596 0.9872 0.0024
vn 0.1604 -0.9871 -0.0017
vn -0.1566 0.9877 0.0021
vn 0.1607 -0.9870 -0.0013
vn -0.1580 0.9874 -0.0027
vn -0.1600 0.9871 0.0021
vn 0.1609 -0.9870 -0.0008
vn -0.1570 0.9876 0.0024
vn 0.1610 -0.9870 -0.0003
vn -0.1575 0.9875 -0.0026
vn -0.1604 0.9871 0.0017
vn 0.1610 -0.9870 0.0003
vn -0.1575 0.9875 0.0026
vn 0.1609 -0.9870 0.0008
vn -0.1580 0.9874 0.0027
vn -0.1570 0.9876 -0.0024
vn -0.1607 0.9870 0.0013
usemtl Material.002
s off
f 1/1/1 24/2/1 2/3/1
f 2/3/2 24/2/2 3/4/2
f 3/4/3 24/2/3 4/5/3
f 4/5/4 24/2/4 5/6/4
f 5/6/5 24/2/5 6/7/5
f 6/7/6 24/2/6 7/8/6
f 7/8/7 24/2/7 8/9/7
f 8/9/8 24/2/8 9/10/8
f 9/10/9 24/2/9 10/11/9
f 10/11/10 24/2/10 11/12/10
f 11/12/11 24/2/11 12/13/11
f 12/13/12 24/2/12 13/14/12
f 13/14/13 24/2/13 14/15/13
f 14/15/14 24/2/14 15/16/14
f 15/16/15 24/2/15 16/17/15
f 16/17/16 24/2/16 17/18/16
f 17/18/17 24/2/17 18/19/17
f 18/19/18 24/2/18 19/20/18
f 19/20/19 24/2/19 20/21/19
f 20/21/20 24/2/20 21/22/20
f 21/22/21 24/2/21 22/23/21
f 22/23/22 24/2/22 23/24/22
f 23/24/23 24/2/23 25/25/23
f 25/25/24 24/2/24 26/26/24
f 26/26/25 24/2/25 27/27/25
f 27/27/26 24/2/26 28/28/26
f 28/28/27 24/2/27 29/29/27
f 29/29/28 24/2/28 30/30/28
f 30/30/29 24/2/29 31/31/29
f 31/31/30 24/2/30 32/32/30
f 32/32/31 24/2/31 33/33/31
f 33/33/32 24/2/32 1/1/32
f 48/34/33 47/35/33 111/36/33 112/37/33
f 34/38/34 35/39/34 36/40/34 37/41/34 38/42/34 39/43/34 40/44/34 41/45/34 42/46/34 43/47/34 44/48/34 45/49/34 46/50/34 47/35/34 48/34/34 49/51/34 50/52/34 51/53/34 52/54/34 53/55/34 54/56/34 55/57/34 56/58/34 57/59/34 58/60/34 59/61/34 60/62/34 61/63/34 62/64/34 63/65/34 64/66/34 65/67/34
f 26/26/35 27/27/35 91/68/35 90/69/35
f 47/35/36 46/50/36 110/70/36 111/36/36
f 12/13/37 13/14/37 78/71/37 77/72/37
f 46/50/38 45/49/38 109/73/38 110/70/38
f 25/25/39 26/26/39 90/69/39 89/74/39
f 45/49/40 44/48/40 108/75/40 109/73/40
f 11/12/41 12/13/41 77/72/41 76/76/41
f 44/48/42 43/47/42 107/77/42 108/75/42
f 23/24/43 25/25/43 89/74/43 88/78/43
f 43/47/44 42/46/44 106/79/44 107/77/44
f 10/11/45 11/12/45 76/76/45 75/80/45
f 42/46/46 41/45/46 105/81/46 106/79/46
f 41/45/47 40/44/47 104/82/47 105/81/47
f 9/10/48 10/11/48 75/80/48 74/83/48
f 22/23/49 23/24/49 88/78/49 87/84/49
f 40/44/50 39/43/50 103/85/50 104/82/50
f 34/38/51 65/67/51 129/86/51 98/87/51
f 39/43/52 38/42/52 102/88/52 103/85/52
f 65/67/53 64/66/53 128/89/53 129/86/53
f 8/9/54 9/10/54 74/83/54 73/90/54
f 21/22/55 22/23/55 87/84/55 86/91/55
f 38/42/56 37/41/56 101/92/56 102/88/56
f 64/66/57 63/65/57 127/93/57 128/89/57
f 37/41/58 36/40/58 100/94/58 101/92/58
f 63/65/59 62/64/59 126/95/59 127/93/59
f 7/8/60 8/9/60 73/90/60 72/96/60
f 20/21/61 21/22/61 86/91/61 85/97/61
f 36/40/62 35/39/62 99/98/62 100/94/62
f 62/64/63 61/63/63 125/99/63 126/95/63
f 35/39/64 34/38/64 98/87/64 99/98/64
f 61/63/65 60/62/65 124/100/65 125/99/65
f 70/101/66 71/102/66 103/103/66 102/104/66
f 97/105/67 66/106/67 98/107/67 129/108/67
f 77/72/68 78/71/68 110/109/68 109/110/68
f 90/69/69 91/68/69 123/111/69 122/112/69
f 84/113/70 85/97/70 117/114/70 116/115/70
f 71/102/71 72/96/71 104/116/71 103/103/71
f 78/71/72 79/117/72 111/118/72 110/109/72
f 91/68/73 92/119/73 124/120/73 123/111/73
f 85/97/74 86/91/74 118/121/74 117/114/74
f 72/96/75 73/90/75 105/122/75 104/116/75
f 66/106/76 67/123/76 99/124/76 98/107/76
f 79/117/77 80/125/77 112/126/77 111/118/77
f 92/119/78 93/127/78 125/128/78 124/120/78
f 86/91/79 87/84/79 119/129/79 118/121/79
f 73/90/80 74/83/80 106/130/80 105/122/80
f 80/125/81 81/131/81 113/132/81 112/126/81
f 93/127/82 94/133/82 126/134/82 125/128/82
f 87/84/83 88/78/83 120/135/83 119/129/83
f 67/123/84 68/136/84 100/137/84 99/124/84
f 74/83/85 75/80/85 107/138/85 106/130/85
f 81/131/86 82/139/86 114/140/86 113/132/86
f 94/133/87 95/141/87 127/142/87 126/134/87
f 68/136/88 69/143/88 101/144/88 100/137/88
f 75/80/89 76/76/89 108/145/89 107/138/89
f 88/78/90 89/74/90 121/146/90 120/135/90
f 82/139/91 83/147/91 115/148/91 114/140/91
f 95/141/92 96/149/92 128/150/92 127/142/92
f 69/143/93 70/101/93 102/104/93 101/144/93
f 76/76/94 77/72/94 109/110/94 108/145/94
f 89/74/95 90/69/95 122/112/95 121/146/95
f 83/147/96 84/113/96 116/115/96 115/148/96
f 96/149/97 97/105/97 129/108/97 128/150/97
f 13/14/98 14/15/98 79/117/98 78/71/98
f 49/51/99 48/34/99 112/37/99 113/151/99
f 27/27/100 28/28/100 92/119/100 91/68/100
f 1/1/101 2/3/101 67/123/101 66/106/101
f 50/52/102 49/51/102 113/151/102 114/152/102
f 14/15/103 15/16/103 80/125/103 79/117/103
f 51/53/104 50/52/104 114/152/104 115/153/104
f 28/28/105 29/29/105 93/127/105 92/119/105
f 52/54/106 51/53/106 115/153/106 116/154/106
f 15/16/107 16/17/107 81/131/107 80/125/107
f 2/3/108 3/4/108 68/136/108 67/123/108
f 53/55/109 52/54/109 116/154/109 117/155/109
f 29/29/110 30/30/110 94/133/110 93/127/110
f 54/56/111 53/55/111 117/155/111 118/156/111
f 16/17/112 17/18/112 82/139/112 81/131/112
f 3/4/113 4/5/113 69/143/113 68/136/113
f 55/57/114 54/56/114 118/156/114 119/157/114
f 30/30/115 31/31/115 95/141/115 94/133/115
f 56/58/116 55/57/116 119/157/116 120/158/116
f 17/18/117 18/19/117 83/147/117 82/139/117
f 4/5/118 5/6/118 70/101/118 69/143/118
f 57/59/119 56/58/119 120/158/119 121/159/119
f 31/31/120 32/32/120 96/149/120 95/141/120
f 58/60/121 57/59/121 121/159/121 122/160/121
f 18/19/122 19/20/122 84/113/122 83/147/122
f 5/6/123 6/7/123 71/102/123 70/101/123
f 59/61/124 58/60/124 122/160/124 123/161/124
f 32/32/125 33/33/125 97/105/125 96/149/125
f 60/62/126 59/61/126 123/161/126 124/100/126
f 33/33/127 1/1/127 66/106/127 97/105/127
f 19/20/128 20/21/128 85/97/128 84/113/128
f 6/7/129 7/8/129 72/96/129 71/102/129
